<?xml version="1.0" encoding="utf-8"?>
<!-- Generator: Adobe Illustrator 23.1.0, SVG Export Plug-In . SVG Version: 6.00 Build 0)  -->
<svg version="1.1" id="svg2993" xmlns="http://www.w3.org/2000/svg" xmlns:xlink="http://www.w3.org/1999/xlink" x="0px" y="0px"
	 viewBox="0 0 200 91" style="enable-background:new 0 0 200 91;" xml:space="preserve">
<style type="text/css">
	.st0{fill:#F47216;}
	.st1{fill-rule:evenodd;clip-rule:evenodd;fill:#F47216;}
</style>
<g id="layer1" transform="translate(-24.411813,-520.87955)">
	<g id="g1250" transform="matrix(3.2320203,0,0,-3.2320203,-349.2427,1305.7175)">
		<g id="g1252">
			<g id="g1258" transform="translate(145.6145,225.48981)">
				<path id="path1260" class="st0" d="M0,0c1.3,0,2.3-0.9,2.3-2.3c0-1.6-1.2-2.9-2.7-2.9c-1.4,0-2.3,0.9-2.3,2.4S-1.5,0,0,0
					 M-0.6-7.5c1.7,0,3.1,0.6,4.2,1.8c0.9,1,1.3,2.2,1.3,3.6c0,2.6-1.9,4.4-4.7,4.4C-1.5,2.3-3,1.6-4,0.5c-0.9-1-1.3-2.2-1.3-3.6
					c0-1.3,0.5-2.5,1.4-3.3S-1.9-7.5-0.6-7.5"/>
			</g>
			<g id="g1262" transform="translate(152.7896,227.575)">
				<path id="path1264" class="st0" d="M0,0h2.9l2-4.6C5-5,5.2-5.5,5.4-6.2V-6c0,0.4,0.1,0.9,0.1,1.3L6.2,0h2.5L7.2-9.4H4.5L2.4-4.6
					C2.2-4.2,2-3.7,1.8-3.1v-0.3c0-0.5-0.1-0.9-0.1-1.3L1-9.4h-2.5L0,0z"/>
			</g>
			<g id="g1266" transform="translate(170.05499,224.54379)">
				<path id="path1268" class="st0" d="M0,0c-0.7,0.6-1.6,0.9-2.5,0.9c-1.6,0-2.7-1.2-2.7-2.9c0-1.5,0.9-2.4,2.4-2.4
					c0.7,0,1.4,0.2,2.1,0.5L-1-6.3c-0.6-0.2-1.4-0.3-2.3-0.3C-6-6.6-7.7-4.8-7.7-2c0,1.3,0.4,2.6,1.2,3.5c0.9,1.1,2.4,1.8,4.1,1.8
					c1.1,0,2-0.3,2.8-0.7L0,0z"/>
			</g>
			<g id="g1270" transform="translate(172.07581,227.575)">
				<path id="path1272" class="st0" d="M0,0h5.4L5.1-2.1H2.2L1.9-3.7h2.7l-0.3-2H1.6L1-9.4h-2.5L0,0z"/>
			</g>
			<g id="g1374" transform="translate(128.57581,225.2382)">
				<path id="path1376" class="st1" d="M0,0c-0.2-0.1-0.4-0.2-0.6-0.3c3.4,1.6,6.7,3.9,9.2,6.4C8.7,6.3,9,6.6,9.2,6.7
					c1.2,1.2,2.8,2.8,3.9,4.2c0.6,0.7,1.2,1,1.2,1c0.2,0.1,0.4,0.3,0.3,0.1c-0.2-0.4-0.9-1.2-0.9-1.3c0,0,0.2,0.2,0.3,0.3
					c0.1-0.1,0.6,0.4,0.8,0.5s1.1,1.2,1.2,1.3c0.4,0.5-0.4-1.4-1-2.1c-0.2-0.4,0.1-0.1,0.1-0.1c-0.3-0.3-0.4-0.6-0.7-0.9
					c0,0-0.9-1.1-1.3-1.6c0,0-0.2-0.2-0.6-0.7c-0.2-0.2-0.2-0.2-0.2-0.1l0,0c-0.2-0.1-0.5-0.5-0.6-0.6l0,0c-0.4-0.3-0.6-0.6-1-0.9
					l0,0c-0.2-0.2-0.3-0.3-0.3-0.3l0,0C10.3,5.2,9.9,5,9.9,4.9l0,0c-0.7-0.5-1.2-1-1.7-1.5C6.8,2.2,4.9,0.9,3.1-0.1
					c-0.2-0.1-0.4-0.2-0.2,0C2.7-0.3,2.5-0.4,2.3-0.5C1.9-0.7,2-0.5,1.6-0.8C-1.7-2.3-5.3-3.5-9-3.7c0.9,0.1,1.6,0.2,2.5,0.3
					c0,0,0,0.1,0.2,0.1c1.4,0.3,2.9,0.6,3.5,1c0.2,0.1,0.4,0.2,1.1,0.5L-2.3-2v0.1c0.9,0.3,1.9,0.8,2.7,1.2v0.1l0.4,0.2
					c0.3,0.3-1.9-0.8-3-1.1v0.1l0.4,0.2l0,0C-3.1-1.7-4.1-2-5.5-2.3c0.2,0,0.7,0.1,0.9,0.2c0,0,0,0,0.2,0.1c-0.9-0.2-2-0.5-2.9-0.5
					c-0.2,0,0,0.1,0.6,0.2C-6-2.2-5.6-2.1-5-2l0,0c-0.4-0.1-1.1-0.2-1.5-0.3c-0.2,0,0.4,0.1,0.2,0.1c-0.2,0-0.4-0.1-0.7-0.1
					c0.7,0.1,1.5,0.2,2.2,0.4c0.2,0.1,0.4,0.2,0.4,0.2c1.1,0.3,1.9,0.6,2.5,1C-1.6-0.7-0.6-0.3,0,0"/>
			</g>
			<g id="g1378" transform="translate(129.5262,222.1976)">
				<path id="path1380" class="st1" d="M0,0c-0.3-0.1-0.6-0.3-0.9-0.4C4.3,2,9.4,5.5,13.4,9.2c0.2,0.2,0.7,0.7,0.9,1
					c2,1.9,4.3,4.3,6,6.4c0.8,1,1.6,1.7,1.6,1.7c0.2,0.3,0.5,0.5,0.3,0.2c-0.3-0.6-1.3-1.9-1.3-2c0,0,0.2,0.3,0.4,0.5
					c0.1-0.1,0.8,0.7,1,1c0.2,0.2,1.5,1.9,1.2,2.5c-0.1,0.2-0.1,0.2,0,0.1c0.2-0.1,0.3-0.7,0.1-1.1c-0.2-0.9-0.8-1.9-1.1-2.5
					c-0.4-0.6,0.1-0.1,0.1-0.1c-0.4-0.6-0.6-0.9-1-1.4c0,0-1.3-1.7-2-2.4c0,0-0.2-0.3-1-1c-0.2-0.3-0.3-0.2-0.3-0.2l0,0
					c-0.3-0.2-0.7-0.7-1-1l0,0c-0.5-0.5-1-1-1.5-1.4l0,0C15.5,9.3,15.3,9,15.3,9l0,0c-0.2-0.3-0.8-0.7-0.8-0.7l0,0
					c-1-0.9-1.8-1.6-2.6-2.3C10,4,7.1,2,4.4,0.5C4.1,0.4,3.7,0.2,4,0.4L3.1-0.1c-0.6-0.3-0.3-0.1-1-0.4c-2.5-1.2-5.1-2.2-7.8-3
					C-8.3-4.3-11-5-13.9-5c1.4,0,2.5,0.2,3.9,0.5c0,0,0,0.1,0.3,0.1c2,0.4,4.4,1.1,5.3,1.5C-4-2.8-3.7-2.6-2.8-2.3l-1-0.3v0.1
					C-2.5-2-0.9-1.4,0.4-0.8v0.1L1-0.5c0.6,0.4-2.9-1.2-4.5-1.7v0.1l0.6,0.2l0,0c-2-0.6-3.6-1.1-5.6-1.6c0.3,0.1,1,0.2,1.3,0.3
					c0,0,0,0,0.3,0.1c-1.3-0.4-3-0.8-4.3-0.9c-0.3,0,0,0.1,1,0.3s1.7,0.3,2.7,0.6l0,0c-0.7-0.2-1.6-0.4-2.3-0.5
					c-0.3,0,0.7,0.2,0.3,0.2c-0.3-0.1-0.7-0.1-1-0.2c1,0.2,2.3,0.5,3.3,0.8c0.3,0.1,0.6,0.2,0.6,0.3C-5-2-3.7-1.5-2.8-1.1
					C-2.5-1-0.9-0.4,0,0"/>
			</g>
			<g id="g1382" transform="translate(127.5627,229.2233)">
				<path id="path1384" class="st1" d="M0,0l-0.3-0.2c1.6,1,3.3,2,4.6,3.2l0.3,0.3C5.2,4,6,4.7,6.5,5.3C6.7,5.5,7,5.7,7,5.7
					c0.1,0.1,0.2,0.1,0.2,0C7.2,5.5,6.9,5.1,7,5l0.1,0.2c0.1-0.1,0.4,0.1,0.4,0.2C7.7,5.5,8,6.1,7.9,6.3C7.9,6.5,8,6.4,8.1,6
					s0-0.8-0.1-1.1C7.9,4.7,8.1,4.8,8.2,4.8C8,4.6,8,4.4,7.9,4.3c0,0-0.4-0.6-0.7-0.9c0,0-0.1-0.1-0.4-0.3L6.7,3l0,0
					C6.6,2.9,6.5,2.7,6.4,2.7l0,0C6.2,2.5,6,2.3,5.8,2.2l0,0C5.8,2.1,5.7,2,5.7,2l0,0L5.5,1.7l0,0C5.1,1.5,4.8,1.2,4.5,1
					C3.8,0.4,2.9-0.2,1.9-0.7c-0.1-0.1-0.2-0.1-0.1,0L1.5-0.8c-0.2-0.1-0.1,0-0.3-0.1c-1.7-0.8-3.2-1.8-5.3-2
					c0.6,0.1,0.9,0.2,1.4,0.3c0,0,0,0.1,0.1,0.1C-2-2.3-1.3-2-1-1.8c0.1,0.1,0.2,0.2,0.5,0.3l-0.3-0.1v0.1C-0.4-1.3,0.1-1,0.5-0.8
					v0.1l0.2,0.1c0.1,0.2-1-0.4-1.5-0.6v0.1L-0.6-1l0,0c-0.6-0.3-1.1-0.5-1.7-0.8c0.1,0,0.3,0.1,0.4,0.2c0,0,0,0,0.1,0.1
					C-2.4-1.7-2.9-1.9-3.3-2c-0.1,0,0,0.1,0.3,0.2s0.5,0.2,0.8,0.3l0,0c-0.2,0-0.5-0.2-0.8-0.2c-0.1,0,0.2,0.1,0.1,0.1
					c-0.1,0-0.2-0.1-0.3-0.1c0.3,0.1,0.7,0.2,1,0.4C-2.1-1.3-2-1.2-2-1.2C-1.5-1-1.1-0.7-0.9-0.5C-0.8-0.4-0.3-0.2,0,0"/>
			</g>
		</g>
	</g>
</g>
</svg>
